<svg xmlns="http://www.w3.org/2000/svg" xmlns:xlink="http://www.w3.org/1999/xlink" viewBox="0 0 316 97.4">
  <defs>
    <style>
      .cls-1 {
        fill: url(#linear-gradient);
      }

      .cls-2, .cls-5 {
        fill: #fff;
      }

      .cls-3 {
        opacity: 0.44;
        isolation: isolate;
        fill: url(#linear-gradient-2);
      }

      .cls-4 {
        fill: #004b88;
      }

      .cls-5 {
        fill-rule: evenodd;
      }
    </style>
    <linearGradient id="linear-gradient" x1="-544.91" y1="249.96" x2="-545.99" y2="251.08" gradientTransform="translate(34903.3 -15950.5) scale(63.93)" gradientUnits="userSpaceOnUse">
      <stop offset="0" stop-color="#323392"/>
      <stop offset="1" stop-color="#b13995"/>
    </linearGradient>
    <linearGradient id="linear-gradient-2" x1="-544.63" y1="251.22" x2="-546.07" y2="250.01" gradientTransform="translate(34903.3 -15950.5) scale(63.93)" gradientUnits="userSpaceOnUse">
      <stop offset="0" stop-color="#fff" stop-opacity="0"/>
      <stop offset="0.58" stop-color="#fff" stop-opacity="0.03"/>
      <stop offset="0.58" stop-color="#fff" stop-opacity="0.36"/>
      <stop offset="1" stop-color="#fff" stop-opacity="0"/>
    </linearGradient>
  </defs>
  <title>logo3</title>
  <g id="Layer_2" data-name="Layer 2">
    <g id="Layer_1-2" data-name="Layer 1">
      <g>
        <g id="Group_13" data-name="Group 13">
          <circle id="Ellipse_3-2" data-name="Ellipse 3-2" class="cls-1" cx="32" cy="65.5" r="32"/>
          <path id="Union_5" data-name="Union 5" class="cls-2" d="M42,78.8v-3h3v3Zm-11,0v-3h9v3Zm11-5v-3h3v3Zm-11,0v-3h9v3Zm-11,0v-3h9v3Zm-6,0v-3h3v3Zm22-6v-3h9v3Zm-11,0v-3h9v3Zm-11,0v-3h9v3Zm22-5v-3h9v3Zm-11,0v-3h9v3Zm-6,0v-3h3v3Zm23-5v-3h3v3Zm0-5v-3h3v3Z"/>
          <circle id="Ellipse_4" data-name="Ellipse 4" class="cls-3" cx="32" cy="65.5" r="32"/>
          <circle id="Ellipse_6" data-name="Ellipse 6" class="cls-3" cx="32" cy="65.5" r="32"/>
        </g>
        <g>
          <path class="cls-2" d="M89.1,44.8l-7.7,21h3.2l1.7-5h8.2l1.7,5h3.2l-7.8-21Zm-1.8,13,3.1-9,3.1,9Z"/>
          <path class="cls-2" d="M120,45.6a5.6,5.6,0,0,0-3.3-.8H109v21h3v-8h4.7A7.6,7.6,0,0,0,120,57a5.1,5.1,0,0,0,2.3-2.3,7.6,7.6,0,0,0,0-6.8A5.1,5.1,0,0,0,120,45.6Zm-.8,7.5a2.5,2.5,0,0,1-1.1,1.2,3,3,0,0,1-1.6.5H112v-7h4.5a2.9,2.9,0,0,1,1.6.4,2.4,2.4,0,0,1,1.1,1.3,3.7,3.7,0,0,1,.4,1.8A3.9,3.9,0,0,1,119.2,53.1Z"/>
          <path class="cls-2" d="M143.7,45.7a8.1,8.1,0,0,0-7.4,0,6,6,0,0,0-2.4,2.6,8.6,8.6,0,0,0-.9,3.9v5.9a13.6,13.6,0,0,0,.7,4,8.9,8.9,0,0,0,2.3,2.7h0a8.5,8.5,0,0,0,7.6,0,7.2,7.2,0,0,0,2.5-2.7,9,9,0,0,0,.9-4V52.2a8.6,8.6,0,0,0-.9-3.9A6,6,0,0,0,143.7,45.7ZM145,58.4a5.4,5.4,0,0,1-.6,2.5,3.8,3.8,0,0,1-1.5,1.8,5.1,5.1,0,0,1-4.8,0,4,4,0,0,1-1.6-1.8,7,7,0,0,1-.5-2.5V52.1a7.5,7.5,0,0,1,.5-2.6,4.4,4.4,0,0,1,1.6-1.7,5.1,5.1,0,0,1,4.8,0,4.1,4.1,0,0,1,1.5,1.7,5.8,5.8,0,0,1,.6,2.6Z"/>
          <path class="cls-2" d="M166,57.8h4v1a7.1,7.1,0,0,1-.6,2.8,3.8,3.8,0,0,1-1.5,1.8,3.9,3.9,0,0,1-2.4.6,3.8,3.8,0,0,1-3-1.1l-.6-.5a5.9,5.9,0,0,1-.9-3.2V52.5a8.7,8.7,0,0,1,.5-2.8,4.9,4.9,0,0,1,1.6-1.9,3.8,3.8,0,0,1,2.3-.6,3.4,3.4,0,0,1,1.8.4,4.4,4.4,0,0,1,1.5,1.2,4,4,0,0,1,.9,2h3.2a7.1,7.1,0,0,0-1.4-3.2,7,7,0,0,0-2.6-2.2,6.5,6.5,0,0,0-3.4-.7,6.9,6.9,0,0,0-3.9,1,6.2,6.2,0,0,0-2.6,2.7,9,9,0,0,0-.9,4v6a8.5,8.5,0,0,0,.9,3.8,5.9,5.9,0,0,0,2.7,2.5,6.8,6.8,0,0,0,3.9.9,7.8,7.8,0,0,0,4-.9,7.5,7.5,0,0,0,2.6-2.7,9.3,9.3,0,0,0,.9-4V54.8h-7Z"/>
          <polygon class="cls-2" points="185 44.8 184 44.8 184 65.8 185 65.8 187 65.8 197 65.8 197 62.8 187 62.8 187 56.8 195 56.8 195 53.8 187 53.8 187 47.8 197 47.8 197 44.8 187 44.8 185 44.8"/>
          <polygon class="cls-2" points="209 44.8 208 44.8 208 65.8 209 65.8 211 65.8 221 65.8 221 62.8 211 62.8 211 56.8 219 56.8 219 53.8 211 53.8 211 47.8 221 47.8 221 44.8 211 44.8 209 44.8"/>
          <path class="cls-2" d="M252.3,55a9.4,9.4,0,0,0,1.2-2.2,5.7,5.7,0,0,0,.4-2.2,5.2,5.2,0,0,0-.6-2.8,4.4,4.4,0,0,0-2-1.8,7.3,7.3,0,0,0-3-.6,5.2,5.2,0,0,0-2.7.7,4.9,4.9,0,0,0-2,1.8,7.5,7.5,0,0,0-.9,2.9h2.9a4,4,0,0,1,.9-2.1,3.2,3.2,0,0,1,4-.1,2.6,2.6,0,0,1,.7,1.9,5.3,5.3,0,0,1-.4,1.7,5.1,5.1,0,0,1-.9,1.6L243,63.3v2.5h11v-3h-7.5Z"/>
          <path class="cls-2" d="M274.5,46.2a7.2,7.2,0,0,0-9,0,6.4,6.4,0,0,0-1.5,4.4v9.3s.8,3.1,2,4.3h0a6.8,6.8,0,0,0,8.5,0,5.7,5.7,0,0,0,1.5-4.3V50.6A6.4,6.4,0,0,0,274.5,46.2ZM273,59.9a3.9,3.9,0,0,1-.7,2.3,3.6,3.6,0,0,1-4.6,0,3.3,3.3,0,0,1-.7-2.3V50.5a3.2,3.2,0,0,1,.7-2.3,3.6,3.6,0,0,1,4.6,0,3.7,3.7,0,0,1,.7,2.3Z"/>
          <polygon class="cls-2" points="286 46.8 286 50.1 289 48.3 289 65.8 292 65.8 292 44.8 289 44.8 286 46.8"/>
          <path class="cls-2" d="M314.2,47.9a6.1,6.1,0,0,0-2-2.2,6.8,6.8,0,0,0-6.2,0,4.7,4.7,0,0,0-2,2.2,7.7,7.7,0,0,0-.7,3.4,8.7,8.7,0,0,0,.6,3.2,6.8,6.8,0,0,0,1.7,2.1,4.8,4.8,0,0,0,2.6.7,4.7,4.7,0,0,0,1.7-.3l.5-.2-4.6,9h3.1l4.5-8.9.2-.3a.5.5,0,0,1,.2-.4,24.1,24.1,0,0,0,.8-2.5,19.4,19.4,0,0,0,.2-2.4A8.2,8.2,0,0,0,314.2,47.9ZM311,53.5h0a2.9,2.9,0,0,1-4.2,0,4.2,4.2,0,0,1-.8-2.6,3.8,3.8,0,0,1,.8-2.5,2.9,2.9,0,0,1,4.2,0,3.7,3.7,0,0,1,.7,2.5A4.1,4.1,0,0,1,311,53.5Z"/>
        </g>
        <g>
          <path class="cls-2" d="M85.6,80.4a7.5,7.5,0,0,0,.7-1.2,7.4,7.4,0,0,0,.2-1.2h0a4.1,4.1,0,0,0-.3-1.6,2.4,2.4,0,0,0-1.1-.9,3.8,3.8,0,0,0-1.6-.3,3.3,3.3,0,0,0-1.5.3,2.7,2.7,0,0,0-1.1,1,3.8,3.8,0,0,0-.5,1.6h1.5a2.3,2.3,0,0,1,.5-1.1,1.5,1.5,0,0,1,1.1-.4,1.8,1.8,0,0,1,1.1.3,1.7,1.7,0,0,1,.3,1h0a2.5,2.5,0,0,1-.1.8l-.5.9-3.8,5V86h6.1V84.6H82.5Z"/>
          <path class="cls-2" d="M97.7,80.4a2,2,0,0,0,.9-.9,2,2,0,0,0,.4-1.3V78a3.3,3.3,0,0,0-.4-1.5,2.7,2.7,0,0,0-1.1-1,3.8,3.8,0,0,0-1.6-.3,4.1,4.1,0,0,0-1.6.3A2.9,2.9,0,0,0,92.9,78v.2a2.8,2.8,0,0,0,.3,1.3,3.8,3.8,0,0,0,.9.9,2.2,2.2,0,0,0-1,1.1,2.4,2.4,0,0,0-.4,1.5v.2a2.6,2.6,0,0,0,.4,1.5,2.3,2.3,0,0,0,1.1,1.1,4.7,4.7,0,0,0,1.7.3,4.3,4.3,0,0,0,1.7-.3,3.2,3.2,0,0,0,1.2-1.1,2.6,2.6,0,0,0,.4-1.5V83a2.4,2.4,0,0,0-.4-1.5A2.9,2.9,0,0,0,97.7,80.4Zm-3.3-2.3a2.4,2.4,0,0,1,.2-.8l.5-.5.8-.2.8.2c.3.1.4.3.6.5a2.4,2.4,0,0,1,.2.8h0a2.4,2.4,0,0,1-.2.9c-.2.2-.3.4-.6.5a1.1,1.1,0,0,1-.8.2,1.2,1.2,0,0,1-.8-.2l-.5-.5a2.4,2.4,0,0,1-.2-.8ZM97.7,83a2,2,0,0,1-.2.9l-.6.6-1,.2-.9-.2a.9.9,0,0,1-.6-.6,1.1,1.1,0,0,1-.2-.8v-.2a1.1,1.1,0,0,1,.2-.8.9.9,0,0,1,.6-.6,1.5,1.5,0,0,1,.9-.2,1.6,1.6,0,0,1,1,.2l.6.6a1.9,1.9,0,0,1,.2.8Z"/>
          <path class="cls-2" d="M106.2,75.2h-.9v1.3h-.5v.8h.5v2.5a2,2,0,0,0,.2.9,1.1,1.1,0,0,0,.8.3h.5v-.8h-.6V77.3h.6v-.8h-.6Z"/>
          <path class="cls-2" d="M112.6,76.4a.9.9,0,0,0-.7.3,1,1,0,0,0-.5.4V74.7h-.9V81h.9V78.1a1.1,1.1,0,0,1,.2-.6.8.8,0,0,1,.7-.2l.7.2a1.1,1.1,0,0,1,.2.8V81h.9V78.3a2,2,0,0,0-.4-1.4A1.3,1.3,0,0,0,112.6,76.4Z"/>
          <polygon class="cls-2" points="130 82.4 126.9 75.3 125.5 75.3 125.5 86 126.9 86 126.9 78.8 129.5 84.5 130.6 84.5 133.1 78.6 133.1 86 134.6 86 134.6 75.3 133.2 75.3 130 82.4"/>
          <path class="cls-2" d="M145.8,78.6a2.9,2.9,0,0,0-1.6-.4,3.8,3.8,0,0,0-1.6.3,3.6,3.6,0,0,0-1.2.8l1.1.8.8-.4h.9a1.2,1.2,0,0,1,1.1.4,1.6,1.6,0,0,1,.4,1.2v.3h-2.1a2.7,2.7,0,0,0-1.9.6,2.1,2.1,0,0,0-.7,1.7,2.5,2.5,0,0,0,.7,1.8,4.2,4.2,0,0,0,2.2.5h.8a.9.9,0,0,0,.7-.3l.3-.3V86h1.5V81.1a2.9,2.9,0,0,0-.4-1.6A2.2,2.2,0,0,0,145.8,78.6Zm-.5,6.1a2.4,2.4,0,0,1-1.3.2,2.1,2.1,0,0,1-1.2-.3,1,1,0,0,1-.3-.8c0-.4.1-.7.3-.8s.4-.3.8-.3h2.1v1.4A.5.5,0,0,1,145.3,84.7Z"/>
          <path class="cls-2" d="M157.3,78.2a2.8,2.8,0,0,0-1.3.4,2.2,2.2,0,0,0-.7.9V78.3h-1.5V86h1.5V81.2a1.4,1.4,0,0,1,1.5-1.5h.7l.5.4,1-1.4-.8-.4Z"/>
          <path class="cls-2" d="M166.1,80.2a1.6,1.6,0,0,1,1.4-.5,1.5,1.5,0,0,1,.9.2,1.8,1.8,0,0,1,.7.5l1.1-.9a2.3,2.3,0,0,0-.7-.7l-.9-.4-1.2-.2a3.9,3.9,0,0,0-1.7.4,3.4,3.4,0,0,0-1.2,1.2,3.9,3.9,0,0,0-.4,1.7v1.3a4.8,4.8,0,0,0,.4,1.8,2.5,2.5,0,0,0,1.2,1.1l.7.4h2.2l.9-.4a2.3,2.3,0,0,0,.7-.7l-1.1-1-.7.6-.9.2a1.7,1.7,0,0,1-1.9-1.9V81.5A1.7,1.7,0,0,1,166.1,80.2Z"/>
          <path class="cls-2" d="M179.7,78.2a2.5,2.5,0,0,0-1.2.4,2,2,0,0,0-.8.8V75.3h-1.5V86h1.5V81.1a1.2,1.2,0,0,1,.4-1,1.4,1.4,0,0,1,1.1-.4,1.6,1.6,0,0,1,1.2.4,1.7,1.7,0,0,1,.4,1.3V86h1.5V81.4a3.7,3.7,0,0,0-.6-2.3A2.4,2.4,0,0,0,179.7,78.2Z"/>
          <rect class="cls-2" x="195.8" y="81.5" width="5" height="1.44"/>
          <path class="cls-2" d="M218.1,80.4a2.5,2.5,0,0,0,1.3-.9,2.1,2.1,0,0,0,.4-1.4h0a2.5,2.5,0,0,0-.8-2.1,2.8,2.8,0,0,0-2.1-.7,3.2,3.2,0,0,0-1.4.3,2.4,2.4,0,0,0-1.1.9,3,3,0,0,0-.5,1.5h1.5a.9.9,0,0,1,.3-.7.7.7,0,0,1,.5-.4l.7-.2a1.2,1.2,0,0,1,1,.4,1,1,0,0,1,.4.9v.4a1.5,1.5,0,0,1-.3,1,1.3,1.3,0,0,1-1,.4h-.8v1.5h.8a1.4,1.4,0,0,1,1.1.4,2.1,2.1,0,0,1,.4,1.2v.4a2.1,2.1,0,0,1-.4,1.1,1.6,1.6,0,0,1-1.2.4l-.8-.2a.9.9,0,0,1-.6-.4l-.3-.7h-1.5a3,3,0,0,0,.5,1.5,3.1,3.1,0,0,0,1.1.9l.7.3h.9a4.3,4.3,0,0,0,1.7-.3,2.4,2.4,0,0,0,1-1,2.9,2.9,0,0,0,.4-1.6V83a2.9,2.9,0,0,0-.5-1.7A1.9,1.9,0,0,0,218.1,80.4Z"/>
          <polygon class="cls-2" points="226 76.3 226 77.9 227.5 76.9 227.5 86 229 86 229 75.3 227.5 75.3 226 76.3"/>
          <path class="cls-2" d="M238,78.4h-1.9a.4.4,0,0,1-.1-.3.5.5,0,0,1,.2-.4l.7-.2h.7l.6.4.5-.7-.5-.3-.6-.2h-.7l-.9.2a1,1,0,0,0-.6.5c-.2.2-.2.4-.2.8a1.4,1.4,0,0,0,.2.7.5.5,0,0,0,.5.3l.7.2h.8l.4.2a.4.4,0,0,1,.1.3.8.8,0,0,1-.2.5l-.8.2-.7-.2-.7-.4-.6.6.6.4.6.3h1.8a1.8,1.8,0,0,0,.7-.5,1.9,1.9,0,0,0,.2-.8,1.1,1.1,0,0,0-.3-.8A1,1,0,0,0,238,78.4Z"/>
          <path class="cls-2" d="M243.4,75.2h-.9v1.3H242v.8h.5v2.5a2,2,0,0,0,.2.9,1.1,1.1,0,0,0,.8.3h.6v-.8h-.7V77.3h.7v-.8h-.7Z"/>
          <polygon class="cls-2" points="259.8 82.4 256.7 75.3 255.3 75.3 255.3 86 256.7 86 256.7 78.8 259.3 84.5 260.4 84.5 262.9 78.6 262.9 86 264.4 86 264.4 75.3 263 75.3 259.8 82.4"/>
          <path class="cls-2" d="M275.6,78.6a2.9,2.9,0,0,0-1.6-.4,3.8,3.8,0,0,0-1.6.3,3.6,3.6,0,0,0-1.2.8l1.1.8.8-.4h.9a1.2,1.2,0,0,1,1.1.4,1.6,1.6,0,0,1,.4,1.2v.3h-2.1a2.7,2.7,0,0,0-1.9.6,1.8,1.8,0,0,0-.7,1.7,2.5,2.5,0,0,0,.7,1.8,4.2,4.2,0,0,0,2.2.5h.8a.9.9,0,0,0,.7-.3c.1,0,.2-.2.3-.3V86H277V81.1a2.9,2.9,0,0,0-.4-1.6A2.2,2.2,0,0,0,275.6,78.6Zm-.5,6.1a2.4,2.4,0,0,1-1.3.2,2.1,2.1,0,0,1-1.2-.3,1,1,0,0,1-.3-.8,1.3,1.3,0,0,1,.2-.8,1.2,1.2,0,0,1,.9-.3h2.1v1.4A.5.5,0,0,1,275.1,84.7Z"/>
          <path class="cls-2" d="M287.1,78.2a2.8,2.8,0,0,0-1.3.4,2.2,2.2,0,0,0-.7.9V78.3h-1.6V86h1.6V81.2a1.4,1.4,0,0,1,1.5-1.5h.7l.5.4,1-1.4-.8-.4Z"/>
          <path class="cls-2" d="M295.9,80.2a1.6,1.6,0,0,1,1.4-.5,1.5,1.5,0,0,1,.9.2,1.8,1.8,0,0,1,.7.5l1.1-.9a2.3,2.3,0,0,0-.7-.7l-.9-.4-1.2-.2a3.9,3.9,0,0,0-1.7.4,3.4,3.4,0,0,0-1.2,1.2,3.9,3.9,0,0,0-.4,1.7v1.3a4.8,4.8,0,0,0,.4,1.8,2.5,2.5,0,0,0,1.2,1.1l.7.4h2.2l.9-.4a2.3,2.3,0,0,0,.7-.7l-1.1-1-.7.6-.9.2a1.7,1.7,0,0,1-1.9-1.9V81.5A1.7,1.7,0,0,1,295.9,80.2Z"/>
          <path class="cls-2" d="M311.5,79.1a2.4,2.4,0,0,0-2-.9,2.5,2.5,0,0,0-1.2.4,2,2,0,0,0-.8.8V75.3H306V86h1.5V81.1a1.2,1.2,0,0,1,.4-1,1.4,1.4,0,0,1,1.1-.4,1.6,1.6,0,0,1,1.2.4,1.7,1.7,0,0,1,.4,1.3V86h1.5V81.4A3.7,3.7,0,0,0,311.5,79.1Z"/>
        </g>
        <g>
          <rect class="cls-4" x="183" width="133" height="36.55"/>
          <path class="cls-5" d="M199.8,27.8l4.6-8.1h-3.1l1.6-2.7h7.4l-1.6,2.7H206L201.3,28a9.7,9.7,0,0,0,0-19.3h-1.2L195.4,17h5.9l-1.6,2.7h-7.4l6-10.4a9.5,9.5,0,0,0,1.5,18.5m1.5-20.4a10.9,10.9,0,1,1-11,10.9,10.9,10.9,0,0,1,11-10.9"/>
          <path class="cls-2" d="M302.7,18.3a3,3,0,0,1,2.7-2.6c1.5,0,1.9,1.3,1.6,2.6a3,3,0,0,1-2.7,2.6c-1.6,0-1.9-1.3-1.6-2.6m-1.6,0c-.5,2.2.5,3.8,2.9,3.8a4.6,4.6,0,0,0,4.6-3.8c.4-2.2-.6-3.8-2.9-3.8A4.5,4.5,0,0,0,301.1,18.3ZM294.6,22h1.5l.6-3.1h.5c.7,0,.9.2,1,.7l.4,2.4h1.6l-.6-2.9a.7.7,0,0,0-.6-.7h0a2.1,2.1,0,0,0,1.9-1.7c.5-2-1.5-1.9-3.1-1.9h-1.6Zm2.9-6.2h.4c.8,0,1.6.1,1.4.9s-1,1-1.8,1h-.4ZM288.3,22h2.6a2.9,2.9,0,0,0,3.1-2.1,1.3,1.3,0,0,0-1.3-1.7h0a2,2,0,0,0,1.8-1.6c.4-1.6-1-1.8-2-1.8h-2.6Zm2.9-6.2h.5c.7,0,1.4,0,1.2.9s-.9.8-1.5.8h-.6Zm-.7,2.9h.7c.8,0,1.5.1,1.3,1.1s-1,1-1.7,1h-.7Zm-9,.5c-.4,2,.5,2.8,2.5,2.8s3.3-.8,3.7-2.8l1-4.6h-1.5l-.9,4.2c-.3,1.2-.9,2.1-2.1,2.1s-1.4-.9-1.1-2.1l.9-4.2h-1.5Zm-6.4-.9a2.9,2.9,0,0,1,2.7-2.6c1.5,0,1.8,1.3,1.5,2.6s-1.1,2.6-2.7,2.6S274.8,19.6,275.1,18.3Zm-1.6,0c-.5,2.2.4,3.8,2.9,3.8a4.5,4.5,0,0,0,4.5-3.8c.5-2.2-.5-3.8-2.9-3.8A4.4,4.4,0,0,0,273.5,18.3Zm-4,3.7H271l1.3-6.2h2.3l.3-1.2h-6.1l-.3,1.2h2.3Zm-7.3-3.9a2.7,2.7,0,0,0,1.8-1.9c.3-1.2-.7-1.6-1.8-1.6s-2.4.5-2.6,1.6.2,1.2.6,1.8c-1.3.5-1.8,1.1-2,2s.7,2.1,2.2,2.1a4,4,0,0,0,2.3-.8l.3.7h1.9l-1-1.5a6.4,6.4,0,0,0,1.5-2.5H264a2.5,2.5,0,0,1-.8,1.6Zm-.7-.7a1.3,1.3,0,0,1-.5-1.1,1.1,1.1,0,0,1,1-.8.7.7,0,0,1,.7.8C262.6,16.7,261.9,17.2,261.5,17.4Zm.6,3.1a1.9,1.9,0,0,1-1.4.5c-.7,0-1.2-.5-1-1.1s.6-.9,1.1-1.2ZM247.3,22h1.4l1.2-5.5h0l1.8,5.5h1.8l1.6-7.2h-1.5l-1.2,5.3h0l-1.6-5.3h-2Zm-5.7,0h4.5l.3-1.2h-3l.4-2.1h2.7l.3-1.2h-2.7l.4-1.7h2.9l.3-1h-4.5Zm.3-7.2a4.8,4.8,0,0,0-1.8-.3,3,3,0,0,0-3.1,2.2c-.5,2.5,2.9,1.9,2.6,3.3s-1,.9-1.5.9a3.8,3.8,0,0,1-1.6-.4l-.5,1.3a5.8,5.8,0,0,0,1.9.3c1.5,0,3-.6,3.3-2.2s-2.9-2-2.6-3.2a1.3,1.3,0,0,1,1.4-1,3.7,3.7,0,0,1,1.5.3ZM230,22h1.5l.7-3.1h.5c.6,0,.8.2.9.7L234,22h1.6l-.5-2.9c-.1-.3-.3-.7-.7-.7h0a2,2,0,0,0,1.9-1.7c.5-2-1.5-1.9-3.1-1.9h-1.6Zm2.9-6.2h.5c.7,0,1.5.1,1.3.9s-1,1-1.7,1h-.5ZM222.3,22h1.5l1-1.7H228l.3,1.7h1.6l-1.4-7.2h-1.7Zm5.5-2.8h-2.3l1.8-3.1h0ZM217.7,22h4.5l.2-1.2h-2.9l1.3-6h-1.5Z"/>
        </g>
      </g>
    </g>
  </g>
</svg>
