<svg xmlns="http://www.w3.org/2000/svg" xmlns:xlink="http://www.w3.org/1999/xlink" viewBox="0 0 314.27 63.93">
  <defs>
    <style>
      .cls-1 {
        fill: url(#linear-gradient);
      }

      .cls-2 {
        fill: #fff;
      }

      .cls-3 {
        opacity: 0.44;
        fill: url(#linear-gradient-2);
      }

      .cls-3, .cls-4 {
        isolation: isolate;
      }
    </style>
    <linearGradient id="linear-gradient" x1="-297.26" y1="314.13" x2="-298.34" y2="313.01" gradientTransform="matrix(63.93, 0, 0, -63.93, 19072.07, 20079.32)" gradientUnits="userSpaceOnUse">
      <stop offset="0" stop-color="#323392"/>
      <stop offset="1" stop-color="#b13995"/>
    </linearGradient>
    <linearGradient id="linear-gradient-2" x1="-297" y1="312.88" x2="-298.44" y2="314.09" gradientTransform="matrix(63.93, 0, 0, -63.93, 19072.07, 20079.32)" gradientUnits="userSpaceOnUse">
      <stop offset="0" stop-color="#fff" stop-opacity="0"/>
      <stop offset="0.58" stop-color="#fff" stop-opacity="0.03"/>
      <stop offset="0.58" stop-color="#fff" stop-opacity="0.36"/>
      <stop offset="1" stop-color="#fff" stop-opacity="0"/>
    </linearGradient>
  </defs>
  <title>logo</title>
  <g id="Layer_2" data-name="Layer 2">
    <g id="Layer_1-2" data-name="Layer 1">
      <g>
        <g id="Group_13" data-name="Group 13">
          <circle id="Ellipse_3-2" data-name="Ellipse 3-2" class="cls-1" cx="31.97" cy="31.97" r="31.97"/>
          <path id="Union_5" data-name="Union 5" class="cls-2" d="M41.66,45.11V41.79H45v3.32Zm-11,0V41.79h8.81v3.32Zm11-5.17V36.62H45v3.32Zm-11,0V36.62h8.81v3.32Zm-11,0V36.62h8.8v3.32Zm-5.8,0V36.62h3.3v3.32Zm22.22-5.12V31.51H45v3.31Zm-10.91,0V31.51h8.81v3.31Zm-11.31,0V31.51h8.81v3.31Zm22.22-5.11V26.39H45v3.32Zm-10.91,0V26.39h8.81v3.32Zm-5.85,0V26.39h3.3v3.32Zm22.27-5.17V21.22H45v3.32Zm0-5.12V16.11H45v3.31Z"/>
          <circle id="Ellipse_4" data-name="Ellipse 4" class="cls-3" cx="31.97" cy="31.97" r="31.97"/>
          <circle id="Ellipse_6" data-name="Ellipse 6" class="cls-3" cx="31.97" cy="31.97" r="31.97"/>
        </g>
        <g id="APOGEE_2019" data-name="APOGEE 2019" class="cls-4">
          <g class="cls-4">
            <path class="cls-2" d="M89.16,11.41h2.46L99.21,32H96.09l-5.7-16.61L84.68,32H81.57Zm-4.1,13.33H95.9v2.74H85.06Z"/>
            <path class="cls-2" d="M108.91,11.41h2.89V32h-2.89Zm1.49,9.86H117a3.07,3.07,0,0,0,1.64-.44,2.92,2.92,0,0,0,1.1-1.25,4.19,4.19,0,0,0,.39-1.85,4.25,4.25,0,0,0-.39-1.87,3,3,0,0,0-1.1-1.26,3.07,3.07,0,0,0-1.64-.44H110.4V11.41h6.48a6.43,6.43,0,0,1,3.24.79,5.46,5.46,0,0,1,2.18,2.21,7,7,0,0,1,.77,3.32,6.87,6.87,0,0,1-.77,3.3,5.37,5.37,0,0,1-2.18,2.2,6.53,6.53,0,0,1-3.24.78H110.4Z"/>
            <path class="cls-2" d="M136.28,31.27a6.39,6.39,0,0,1-2.54-2.66,8.5,8.5,0,0,1-.9-4V18.79a8.5,8.5,0,0,1,.9-4,6.45,6.45,0,0,1,2.54-2.66,8.13,8.13,0,0,1,7.59,0,6.51,6.51,0,0,1,2.54,2.66,8.5,8.5,0,0,1,.9,4v5.83a8.5,8.5,0,0,1-.9,4,6.45,6.45,0,0,1-2.54,2.66,8.13,8.13,0,0,1-7.59,0Zm6-2.48a3.89,3.89,0,0,0,1.5-1.63,5.38,5.38,0,0,0,.53-2.44v-6a5.38,5.38,0,0,0-.53-2.44,3.89,3.89,0,0,0-1.5-1.63,4.71,4.71,0,0,0-4.49,0,3.76,3.76,0,0,0-1.5,1.63,5.25,5.25,0,0,0-.53,2.44v6a5.25,5.25,0,0,0,.53,2.44,3.76,3.76,0,0,0,1.5,1.63,4.63,4.63,0,0,0,4.49,0Z"/>
            <path class="cls-2" d="M172.64,20.91v3.6a8.81,8.81,0,0,1-.89,4,6.5,6.5,0,0,1-2.53,2.71,7.43,7.43,0,0,1-3.79.95,7.88,7.88,0,0,1-3.83-.9,6.24,6.24,0,0,1-2.55-2.54,7.67,7.67,0,0,1-.91-3.81V18.89a8.81,8.81,0,0,1,.89-4,6.53,6.53,0,0,1,2.53-2.7,7.43,7.43,0,0,1,3.79-1,7,7,0,0,1,3.26.76,6.86,6.86,0,0,1,2.5,2.14,8.09,8.09,0,0,1,1.36,3.22h-3.13a4.48,4.48,0,0,0-.86-1.78,4.17,4.17,0,0,0-1.43-1.13,4,4,0,0,0-1.7-.39,4.07,4.07,0,0,0-2.24.61,4,4,0,0,0-1.49,1.7,5.88,5.88,0,0,0-.52,2.56V25a4.8,4.8,0,0,0,.54,2.33,3.78,3.78,0,0,0,1.52,1.55,4.54,4.54,0,0,0,2.27.55,4.31,4.31,0,0,0,2.24-.57,3.83,3.83,0,0,0,1.49-1.66,5.93,5.93,0,0,0,.52-2.59v-.9H165.5V20.91Z"/>
            <path class="cls-2" d="M183.9,11.41h2.88V32H183.9Zm1.4,0h11.82v2.75H185.3Zm0,9h10.26v2.75H185.3Zm0,8.85h11.82V32H185.3Z"/>
            <path class="cls-2" d="M207.81,11.41h2.89V32h-2.89Zm1.4,0H221v2.75H209.21Zm0,9h10.27v2.75H209.21Zm0,8.85H221V32H209.21Z"/>
            <path class="cls-2" d="M242.53,29.49l7.18-9.57a7.28,7.28,0,0,0,1-1.7,4.55,4.55,0,0,0,.34-1.65v0a2.5,2.5,0,0,0-.72-1.91,3.3,3.3,0,0,0-4.09.06,3.41,3.41,0,0,0-1,2.1v0h-3v0a7.71,7.71,0,0,1,1-3,5.33,5.33,0,0,1,2-1.91,6,6,0,0,1,2.87-.66,7.12,7.12,0,0,1,3.14.63,4.48,4.48,0,0,1,2,1.83,5.88,5.88,0,0,1,.68,2.91h0a6.22,6.22,0,0,1-.46,2.28,9.56,9.56,0,0,1-1.26,2.29l-6,8.1h7.79V32H242.53Z"/>
            <path class="cls-2" d="M265.9,30.67a5.92,5.92,0,0,1-1.5-4.31V17a5.92,5.92,0,0,1,1.51-4.31,7,7,0,0,1,8.75,0,5.89,5.89,0,0,1,1.5,4.31v9.36a5.93,5.93,0,0,1-1.5,4.32,7,7,0,0,1-8.76,0Zm6.64-2a3.3,3.3,0,0,0,.73-2.31V17a3.34,3.34,0,0,0-.72-2.3,3.61,3.61,0,0,0-4.53,0,3.29,3.29,0,0,0-.73,2.3v9.36a3.35,3.35,0,0,0,.73,2.31,3.59,3.59,0,0,0,4.52,0Z"/>
            <path class="cls-2" d="M292,32h-2.89V14.56l-2.93,1.79v-3l2.93-2H292Z"/>
            <path class="cls-2" d="M310.51,21.78l0,.51a2.08,2.08,0,0,1-1.07.95,4.15,4.15,0,0,1-1.69.31,4.55,4.55,0,0,1-2.59-.75,4.94,4.94,0,0,1-1.73-2.12,7.66,7.66,0,0,1-.62-3.17h0a7.86,7.86,0,0,1,.67-3.41,4.74,4.74,0,0,1,2-2.15,6.84,6.84,0,0,1,6.21,0,4.84,4.84,0,0,1,2,2.18,8,8,0,0,1,.67,3.44v0a10.58,10.58,0,0,1-.28,2.35,14.46,14.46,0,0,1-.81,2.49c-.05.12-.11.25-.17.37a2.64,2.64,0,0,1-.18.38L308.44,32h-3.12Zm.13-1.79a4,4,0,0,0,.75-2.59h0a3.79,3.79,0,0,0-.75-2.52,2.56,2.56,0,0,0-2.1-.9,2.6,2.6,0,0,0-2.12.9,3.87,3.87,0,0,0-.74,2.53v0a4,4,0,0,0,.74,2.58,2.57,2.57,0,0,0,2.12.91A2.51,2.51,0,0,0,310.64,20Z"/>
          </g>
        </g>
        <g class="cls-4">
          <path class="cls-2" d="M82,52.62l4-5.28a4.13,4.13,0,0,0,.54-1,2.6,2.6,0,0,0,.19-.91h0a1.42,1.42,0,0,0-.4-1.06,1.83,1.83,0,0,0-2.26,0,1.82,1.82,0,0,0-.52,1.16H81.86a4.18,4.18,0,0,1,.57-1.67,3,3,0,0,1,1.12-1,3.28,3.28,0,0,1,1.59-.37,4,4,0,0,1,1.74.35,2.48,2.48,0,0,1,1.09,1,3.23,3.23,0,0,1,.37,1.6h0a3.48,3.48,0,0,1-.25,1.26A5.09,5.09,0,0,1,87.4,48l-3.29,4.46h4.3V54H82Z"/>
          <path class="cls-2" d="M96.19,53.73A2.81,2.81,0,0,1,95,52.62,3.14,3.14,0,0,1,94.56,51v-.19a3.15,3.15,0,0,1,.43-1.6A2.79,2.79,0,0,1,96.12,48a2.5,2.5,0,0,1-1-.95,2.57,2.57,0,0,1-.37-1.31v-.27a3.08,3.08,0,0,1,.4-1.57,2.73,2.73,0,0,1,1.13-1A3.76,3.76,0,0,1,98,42.52a3.71,3.71,0,0,1,1.68.37,2.73,2.73,0,0,1,1.13,1,3.08,3.08,0,0,1,.4,1.57v.27a2.58,2.58,0,0,1-.37,1.32,2.52,2.52,0,0,1-1,.94A3,3,0,0,1,101,49.18a3.09,3.09,0,0,1,.43,1.59V51a3.23,3.23,0,0,1-.42,1.66,2.89,2.89,0,0,1-1.21,1.11,4.42,4.42,0,0,1-3.63,0ZM99,52.37a1.56,1.56,0,0,0,.65-.62,1.69,1.69,0,0,0,.24-.91v-.11a1.72,1.72,0,0,0-.24-.91A1.56,1.56,0,0,0,99,49.2,2.13,2.13,0,0,0,98,49a2.18,2.18,0,0,0-1,.22,1.62,1.62,0,0,0-.65.62,1.75,1.75,0,0,0-.23.92v.12a1.71,1.71,0,0,0,.23.91,1.51,1.51,0,0,0,.65.6,2.18,2.18,0,0,0,1,.22A2.13,2.13,0,0,0,99,52.37Zm-.13-5.12a1.54,1.54,0,0,0,.57-.59,1.83,1.83,0,0,0,.2-.89v-.11a1.68,1.68,0,0,0-.2-.84,1.56,1.56,0,0,0-.57-.57,2,2,0,0,0-1.69,0,1.56,1.56,0,0,0-.57.57,1.81,1.81,0,0,0-.2.85v.12a1.86,1.86,0,0,0,.2.87,1.54,1.54,0,0,0,.57.59,1.89,1.89,0,0,0,1.69,0Z"/>
          <path class="cls-2" d="M107.11,43.94h2.13v.84h-2.13Zm.75,4.44a1.46,1.46,0,0,1-.26-.94V42.57h.93v4.88a.49.49,0,0,0,.06.27.26.26,0,0,0,.21.09h.44v.88h-.54A1,1,0,0,1,107.86,48.38Z"/>
          <path class="cls-2" d="M113,42.05h.93v6.62H113Zm2.87,3.76a1.11,1.11,0,0,0-.26-.78,1.13,1.13,0,0,0-1.43,0,.85.85,0,0,0-.25.67l-.1-.91a1.73,1.73,0,0,1,.57-.65,1.38,1.38,0,0,1,.79-.23,1.45,1.45,0,0,1,1.19.5,2.17,2.17,0,0,1,.42,1.42v2.87h-.93Z"/>
          <path class="cls-2" d="M136.49,42.64H138V54h-1.56V45.49l.08.5-2.79,6.43H132.6l-2.8-6.27.08-.66V54h-1.56V42.64h1.5l3.33,7.5Z"/>
          <path class="cls-2" d="M145.23,53.5a2.33,2.33,0,0,1-.75-1.89,2.29,2.29,0,0,1,.68-1.8,3,3,0,0,1,2.06-.61h2.3l.11,1.28h-2.4a1.41,1.41,0,0,0-.94.28,1.12,1.12,0,0,0-.31.85,1,1,0,0,0,.42.91,2.08,2.08,0,0,0,1.24.3,3.6,3.6,0,0,0,1.36-.19.65.65,0,0,0,.45-.61l.17,1.14a1.92,1.92,0,0,1-.52.54,2.34,2.34,0,0,1-.72.31,3.6,3.6,0,0,1-.91.11A3.44,3.44,0,0,1,145.23,53.5Zm4.22-4.64a1.74,1.74,0,0,0-.42-1.24,1.63,1.63,0,0,0-1.21-.44,3.09,3.09,0,0,0-.95.15,3,3,0,0,0-.82.41L144.88,47a3.15,3.15,0,0,1,1.22-.87,4.47,4.47,0,0,1,1.67-.31,3.81,3.81,0,0,1,1.73.36,2.47,2.47,0,0,1,1.09,1,3.3,3.3,0,0,1,.38,1.63V54h-1.52Z"/>
          <path class="cls-2" d="M157.63,45.89h1.6V54h-1.6Zm3.93,1.53a1.88,1.88,0,0,0-.74-.13,1.59,1.59,0,0,0-1.18.42,1.55,1.55,0,0,0-.41,1.16l-.17-1.56a2.85,2.85,0,0,1,1-1.13,2.28,2.28,0,0,1,1.31-.41,3.19,3.19,0,0,1,1,.16,2.22,2.22,0,0,1,.78.48l-1,1.4A1.38,1.38,0,0,0,161.56,47.42Z"/>
          <path class="cls-2" d="M170.71,54.12l-.79-.42a2.78,2.78,0,0,1-1.2-1.2,4.14,4.14,0,0,1-.41-1.91V49.26a4,4,0,0,1,.41-1.88,2.84,2.84,0,0,1,1.2-1.2,4.13,4.13,0,0,1,1.9-.41,4.17,4.17,0,0,1,1.19.16,3.62,3.62,0,0,1,1,.44,2.48,2.48,0,0,1,.74.7l-1.14,1a2.38,2.38,0,0,0-.81-.6,2.31,2.31,0,0,0-1-.21,1.9,1.9,0,0,0-1.43.52,2,2,0,0,0-.51,1.45v1.33a2.06,2.06,0,0,0,.51,1.49,1.87,1.87,0,0,0,1.43.52,2.19,2.19,0,0,0,1-.22,2.49,2.49,0,0,0,.8-.65l1.14,1.11a2.79,2.79,0,0,1-.75.7,3.48,3.48,0,0,1-1,.43,4.54,4.54,0,0,1-1.18.15Z"/>
          <path class="cls-2" d="M180.75,42.64h1.6V54h-1.6Zm4.92,6.45a1.83,1.83,0,0,0-.44-1.33,1.67,1.67,0,0,0-1.25-.47,1.7,1.7,0,0,0-1.21.41,1.51,1.51,0,0,0-.42,1.14l-.17-1.56a2.88,2.88,0,0,1,1-1.11,2.45,2.45,0,0,1,1.34-.4,2.5,2.5,0,0,1,2,.87,3.65,3.65,0,0,1,.73,2.44V54h-1.6Z"/>
          <path class="cls-2" d="M199.18,49.17v1.52h-5.25V49.17Z"/>
          <path class="cls-2" d="M214.72,54.12l-.72-.35a2.8,2.8,0,0,1-1.17-1,3.59,3.59,0,0,1-.56-1.59h1.62a1.7,1.7,0,0,0,.31.8,1.37,1.37,0,0,0,.6.46,2.14,2.14,0,0,0,.87.16,1.66,1.66,0,0,0,1.23-.43,1.56,1.56,0,0,0,.44-1.18v-.35a1.89,1.89,0,0,0-.42-1.31,1.47,1.47,0,0,0-1.17-.47H215V47.34h.8a1.33,1.33,0,0,0,1-.4,1.59,1.59,0,0,0,.37-1.13v-.35a1.36,1.36,0,0,0-.39-1,1.52,1.52,0,0,0-1.09-.36,1.7,1.7,0,0,0-.73.15,1.42,1.42,0,0,0-.54.47,2.12,2.12,0,0,0-.33.79h-1.61a4,4,0,0,1,.59-1.59,2.77,2.77,0,0,1,1.09-1,3.29,3.29,0,0,1,1.53-.35,3.13,3.13,0,0,1,2.27.78,2.86,2.86,0,0,1,.81,2.18v.18a2.45,2.45,0,0,1-.47,1.49,2.56,2.56,0,0,1-1.3.92,2.34,2.34,0,0,1,1.44.91,3.06,3.06,0,0,1,.51,1.82V51a3.56,3.56,0,0,1-.38,1.7,2.55,2.55,0,0,1-1.11,1.07,3.86,3.86,0,0,1-1.77.37Z"/>
          <path class="cls-2" d="M228.18,54h-1.59V44.38l-1.62,1V43.72l1.62-1.08h1.59Z"/>
          <path class="cls-2" d="M235.81,48.74l-.37-.08a3.06,3.06,0,0,1-.68-.25,2.4,2.4,0,0,1-.59-.41l.55-.68a3.16,3.16,0,0,0,.76.44,2,2,0,0,0,.75.15,1.62,1.62,0,0,0,.82-.17.57.57,0,0,0,.28-.52.41.41,0,0,0-.15-.34,1,1,0,0,0-.37-.15,5.67,5.67,0,0,0-.63-.07H236a3.65,3.65,0,0,1-.78-.14,1,1,0,0,1-.53-.37,1.2,1.2,0,0,1-.21-.77,1.62,1.62,0,0,1,.2-.83,1.27,1.27,0,0,1,.61-.5,2.73,2.73,0,0,1,1-.16,3.88,3.88,0,0,1,.7.06,3.2,3.2,0,0,1,.64.21,2.91,2.91,0,0,1,.59.34l-.56.68a3.05,3.05,0,0,0-.7-.35,2.29,2.29,0,0,0-.67-.11,1.24,1.24,0,0,0-.71.16.55.55,0,0,0-.24.49.32.32,0,0,0,.14.28.69.69,0,0,0,.34.13l.58.06h.17a3.9,3.9,0,0,1,.85.13,1.15,1.15,0,0,1,.58.4,1.31,1.31,0,0,1,.24.85,1.49,1.49,0,0,1-.22.85,1.31,1.31,0,0,1-.66.5,3.14,3.14,0,0,1-1.1.17Z"/>
          <path class="cls-2" d="M241.5,43.94h2.13v.84H241.5Zm.75,4.44a1.46,1.46,0,0,1-.26-.94V42.57h.93v4.88a.49.49,0,0,0,.06.27.26.26,0,0,0,.21.09h.44v.88h-.54A1,1,0,0,1,242.25,48.38Z"/>
          <path class="cls-2" d="M263.19,42.64h1.5V54h-1.56V45.49l.08.5-2.8,6.43H259.3l-2.79-6.27.08-.66V54H255V42.64h1.49l3.34,7.5Z"/>
          <path class="cls-2" d="M271.94,53.5a2.33,2.33,0,0,1-.75-1.89,2.29,2.29,0,0,1,.68-1.8,3,3,0,0,1,2.06-.61h2.3l.11,1.28h-2.4a1.41,1.41,0,0,0-.94.28,1.12,1.12,0,0,0-.31.85,1,1,0,0,0,.41.91,2.13,2.13,0,0,0,1.25.3,3.6,3.6,0,0,0,1.36-.19.65.65,0,0,0,.45-.61l.17,1.14a1.92,1.92,0,0,1-.52.54,2.34,2.34,0,0,1-.72.31,3.6,3.6,0,0,1-.91.11A3.44,3.44,0,0,1,271.94,53.5Zm4.22-4.64a1.74,1.74,0,0,0-.42-1.24,1.63,1.63,0,0,0-1.21-.44,3.09,3.09,0,0,0-.95.15,2.86,2.86,0,0,0-.82.41L271.59,47a3.08,3.08,0,0,1,1.22-.87,4.47,4.47,0,0,1,1.67-.31,3.84,3.84,0,0,1,1.73.36,2.47,2.47,0,0,1,1.09,1,3.3,3.3,0,0,1,.38,1.63V54h-1.52Z"/>
          <path class="cls-2" d="M284.34,45.89h1.59V54h-1.59Zm3.93,1.53a1.92,1.92,0,0,0-.74-.13,1.59,1.59,0,0,0-1.18.42,1.56,1.56,0,0,0-.42,1.16l-.16-1.56a2.85,2.85,0,0,1,1-1.13,2.26,2.26,0,0,1,1.31-.41,3.13,3.13,0,0,1,1,.16,2.36,2.36,0,0,1,.79.48l-1,1.4A1.38,1.38,0,0,0,288.27,47.42Z"/>
          <path class="cls-2" d="M297.42,54.12l-.79-.42a2.78,2.78,0,0,1-1.2-1.2,4,4,0,0,1-.41-1.91V49.26a3.9,3.9,0,0,1,.41-1.88,2.84,2.84,0,0,1,1.2-1.2,4.06,4.06,0,0,1,1.89-.41,4.24,4.24,0,0,1,1.2.16,3.62,3.62,0,0,1,1,.44,2.6,2.6,0,0,1,.74.7l-1.15,1a2.34,2.34,0,0,0-.8-.6,2.31,2.31,0,0,0-1-.21,1.89,1.89,0,0,0-1.43.52,2,2,0,0,0-.51,1.45v1.33a2.1,2.1,0,0,0,.5,1.49,1.91,1.91,0,0,0,1.44.52,2.19,2.19,0,0,0,1-.22,2.46,2.46,0,0,0,.79-.65l1.15,1.11a2.79,2.79,0,0,1-.75.7,3.48,3.48,0,0,1-1,.43,4.56,4.56,0,0,1-1.19.15Z"/>
          <path class="cls-2" d="M307.46,42.64h1.59V54h-1.59Zm4.92,6.45a1.87,1.87,0,0,0-.44-1.33,1.67,1.67,0,0,0-1.25-.47,1.69,1.69,0,0,0-1.21.41,1.51,1.51,0,0,0-.43,1.14l-.16-1.56a2.88,2.88,0,0,1,1-1.11,2.42,2.42,0,0,1,1.34-.4,2.5,2.5,0,0,1,2,.87,3.7,3.7,0,0,1,.73,2.44V54h-1.6Z"/>
        </g>
      </g>
    </g>
  </g>
</svg>
